<svg xmlns="http://www.w3.org/2000/svg" xmlns:xlink="http://www.w3.org/1999/xlink" viewBox="0 0 85 85"><defs><style>.a{fill:none;clip-rule:evenodd;}.b{clip-path:url(#a);}.c{fill:#0013ff;}</style><clipPath id="a"><path class="a" d="M75.32,31.15a40.56,40.56,0,0,1-5.17,17C61.53,63.55,45,72.06,25.91,71.17A50.74,50.74,0,0,1,1,63.32c1.24.15,2.59.31,3.84.37a35.88,35.88,0,0,0,20.88-5.4c-7-.42-13-4.93-14.81-11a17.4,17.4,0,0,0,7.51.07C10.8,45.57,5.43,39.21,6,32.2V32a18.15,18.15,0,0,0,7.39,2.23A14.28,14.28,0,0,1,6.78,21.53,13.93,13.93,0,0,1,9.4,14.14c7.89,9.67,20,15.87,33.13,17.15a12.44,12.44,0,0,1-.22-3.39c.48-8.24,8.26-14.54,17.42-14.11A17.22,17.22,0,0,1,71.43,19,36.55,36.55,0,0,0,82.15,16a15.57,15.57,0,0,1-7.76,7.8A32.71,32.71,0,0,0,84,21.88a31.06,31.06,0,0,1-8.67,7.29A12.46,12.46,0,0,1,75.32,31.15Z"/></clipPath></defs><title>Franticcom_some_ikonit</title><g class="b"><rect class="c" x="-11.16" y="1.61" width="107.32" height="81.78"/></g></svg>