<svg xmlns="http://www.w3.org/2000/svg" viewBox="0 0 85 85"><defs><style>.a{fill:#0013ff;}</style></defs><title>Franticcom_some_ikonit</title><path class="a" d="M42.5,8.48c11.08,0,12.39,0,16.77.24A23,23,0,0,1,67,10.15a12.86,12.86,0,0,1,4.77,3.1A12.86,12.86,0,0,1,74.85,18a23,23,0,0,1,1.43,7.71c.2,4.38.24,5.69.24,16.77s0,12.39-.24,16.77A23,23,0,0,1,74.85,67,13.74,13.74,0,0,1,67,74.85a23,23,0,0,1-7.71,1.43c-4.38.2-5.69.24-16.77.24s-12.39,0-16.77-.24A23,23,0,0,1,18,74.85a12.86,12.86,0,0,1-4.77-3.1A12.86,12.86,0,0,1,10.15,67a23,23,0,0,1-1.43-7.71c-.2-4.38-.24-5.69-.24-16.77s0-12.39.24-16.77A23,23,0,0,1,10.15,18a12.86,12.86,0,0,1,3.1-4.77A12.86,12.86,0,0,1,18,10.15a23,23,0,0,1,7.71-1.43c4.38-.2,5.69-.24,16.77-.24M42.5,1c-11.27,0-12.68,0-17.11.25A30.46,30.46,0,0,0,15.32,3.18,20.34,20.34,0,0,0,8,8a20.34,20.34,0,0,0-4.79,7.35A30.46,30.46,0,0,0,1.25,25.39C1,29.82,1,31.23,1,42.5s0,12.68.25,17.11A30.46,30.46,0,0,0,3.18,69.68,20.34,20.34,0,0,0,8,77a20.34,20.34,0,0,0,7.35,4.79,30.46,30.46,0,0,0,10.07,1.93c4.43.2,5.84.25,17.11.25s12.68,0,17.11-.25a30.46,30.46,0,0,0,10.07-1.93A21.22,21.22,0,0,0,81.82,69.68a30.46,30.46,0,0,0,1.93-10.07c.2-4.43.25-5.84.25-17.11s0-12.68-.25-17.11a30.46,30.46,0,0,0-1.93-10.07A20.34,20.34,0,0,0,77,8a20.34,20.34,0,0,0-7.35-4.79A30.46,30.46,0,0,0,59.61,1.25C55.18,1,53.77,1,42.5,1Z"/><path class="a" d="M42.5,21.19A21.31,21.31,0,1,0,63.81,42.5,21.31,21.31,0,0,0,42.5,21.19Zm0,35.14A13.83,13.83,0,1,1,56.33,42.5,13.83,13.83,0,0,1,42.5,56.33Z"/><circle class="a" cx="64.65" cy="20.35" r="4.98"/></svg>